# Made in Blockbench 5.0.7

o Head
v 0.296875 1.140625 0.078125
v 0.296875 1.140625 -0.515625
v 0.296875 0.5625 0.078125
v 0.296875 0.5625 -0.515625
v -0.296875 1.140625 -0.515625
v -0.296875 1.140625 0.078125
v -0.296875 0.5625 -0.515625
v -0.296875 0.5625 0.078125
vt 0.375 0.875
vt 0.5 0.875
vt 0.5 0.75
vt 0.375 0.75
vt 0.25 0.875
vt 0.375 0.875
vt 0.375 0.75
vt 0.25 0.75
vt 0.125 0.875
vt 0.25 0.875
vt 0.25 0.75
vt 0.125 0.75
vt 0 0.875
vt 0.125 0.875
vt 0.125 0.75
vt 0 0.75
vt 0.125 1
vt 0.25 1
vt 0.25 0.875
vt 0.125 0.875
vt 0.25 0.875
vt 0.375 0.875
vt 0.375 1
vt 0.25 1
vn 0 0 -1
vn 1 0 0
vn 0 0 1
vn -1 0 0
vn 0 1 0
vn 0 -1 0
usemtl m_fa173383-1bf9-ff6f-d5dd-a7bb0e5762e8
f 4/4/1 7/3/1 5/2/1 2/1/1
f 3/8/2 4/7/2 2/6/2 1/5/2
f 8/12/3 3/11/3 1/10/3 6/9/3
f 7/16/4 8/15/4 6/14/4 5/13/4
f 6/20/5 1/19/5 2/18/5 5/17/5
f 7/24/6 4/23/6 3/22/6 8/21/6
o Body
v 0.21875 0.5625 -0.0625
v 0.21875 0.5625 -0.34375
v 0.21875 0 -0.0625
v 0.21875 0 -0.34375
v -0.21875 0.5625 -0.34375
v -0.21875 0.5625 -0.0625
v -0.21875 0 -0.34375
v -0.21875 0 -0.0625
vt 0.5 0.6875
vt 0.625 0.6875
vt 0.625 0.5
vt 0.5 0.5
vt 0.4375 0.6875
vt 0.5 0.6875
vt 0.5 0.5
vt 0.4375 0.5
vt 0.3125 0.6875
vt 0.4375 0.6875
vt 0.4375 0.5
vt 0.3125 0.5
vt 0.25 0.6875
vt 0.3125 0.6875
vt 0.3125 0.5
vt 0.25 0.5
vt 0.3125 0.75
vt 0.4375 0.75
vt 0.4375 0.6875
vt 0.3125 0.6875
vt 0.4375 0.6875
vt 0.5625 0.6875
vt 0.5625 0.75
vt 0.4375 0.75
vn 0 0 -1
vn 1 0 0
vn 0 0 1
vn -1 0 0
vn 0 1 0
vn 0 -1 0
usemtl m_fa173383-1bf9-ff6f-d5dd-a7bb0e5762e8
f 12/28/7 15/27/7 13/26/7 10/25/7
f 11/32/8 12/31/8 10/30/8 9/29/8
f 16/36/9 11/35/9 9/34/9 14/33/9
f 15/40/10 16/39/10 14/38/10 13/37/10
f 14/44/11 9/43/11 10/42/11 13/41/11
f 15/48/12 12/47/12 11/46/12 16/45/12
o Body_Layer
v 0.22499999999999998 0.56875 -0.05625000000000002
v 0.22499999999999998 0.56875 -0.35
v 0.22499999999999998 0.009375000000000022 -0.05625000000000002
v 0.22499999999999998 0.009375000000000022 -0.35
v -0.22499999999999998 0.56875 -0.35
v -0.22499999999999998 0.56875 -0.05625000000000002
v -0.22499999999999998 0.009375000000000022 -0.35
v -0.22499999999999998 0.009375000000000022 -0.05625000000000002
vt 0.5 0.4375
vt 0.625 0.4375
vt 0.625 0.25
vt 0.5 0.25
vt 0.4375 0.4375
vt 0.5 0.4375
vt 0.5 0.25
vt 0.4375 0.25
vt 0.3125 0.4375
vt 0.4375 0.4375
vt 0.4375 0.25
vt 0.3125 0.25
vt 0.25 0.4375
vt 0.3125 0.4375
vt 0.3125 0.25
vt 0.25 0.25
vt 0.3125 0.5
vt 0.4375 0.5
vt 0.4375 0.4375
vt 0.3125 0.4375
vt 0.4375 0.4375
vt 0.5625 0.4375
vt 0.5625 0.5
vt 0.4375 0.5
vn 0 0 -1
vn 1 0 0
vn 0 0 1
vn -1 0 0
vn 0 1 0
vn 0 -1 0
usemtl m_fa173383-1bf9-ff6f-d5dd-a7bb0e5762e8
f 20/52/13 23/51/13 21/50/13 18/49/13
f 19/56/14 20/55/14 18/54/14 17/53/14
f 24/60/15 19/59/15 17/58/15 22/57/15
f 23/64/16 24/63/16 22/62/16 21/61/16
f 22/68/17 17/67/17 18/66/17 21/65/17
f 23/72/18 20/71/18 19/70/18 24/69/18
o Right_Arm
v -0.10942272121297633 0.50283578212555 -0.08124999999999999
v -0.10942272121297633 0.50283578212555 -0.33125
v -0.32468215191833927 -0.016846454912048836 -0.08124999999999999
v -0.32468215191833927 -0.016846454912048836 -0.33125
v -0.2826501335588426 0.5745889256940042 -0.33125
v -0.2826501335588426 0.5745889256940042 -0.08124999999999999
v -0.4979095642642055 0.05490668865640547 -0.33125
v -0.4979095642642055 0.05490668865640547 -0.08124999999999999
vt 0.8125 0.6875
vt 0.875 0.6875
vt 0.875 0.5
vt 0.8125 0.5
vt 0.75 0.6875
vt 0.8125 0.6875
vt 0.8125 0.5
vt 0.75 0.5
vt 0.6875 0.6875
vt 0.75 0.6875
vt 0.75 0.5
vt 0.6875 0.5
vt 0.625 0.6875
vt 0.6875 0.6875
vt 0.6875 0.5
vt 0.625 0.5
vt 0.6875 0.75
vt 0.75 0.75
vt 0.75 0.6875
vt 0.6875 0.6875
vt 0.75 0.6875
vt 0.8125 0.6875
vt 0.8125 0.75
vt 0.75 0.75
vn 0 0 -1
vn 0.9238795325112867 -0.3826834323650897 0
vn 0 0 1
vn -0.9238795325112867 0.3826834323650897 0
vn 0.3826834323650897 0.9238795325112867 0
vn -0.3826834323650897 -0.9238795325112867 0
usemtl m_fa173383-1bf9-ff6f-d5dd-a7bb0e5762e8
f 28/76/19 31/75/19 29/74/19 26/73/19
f 27/80/20 28/79/20 26/78/20 25/77/20
f 32/84/21 27/83/21 25/82/21 30/81/21
f 31/88/22 32/87/22 30/86/22 29/85/22
f 30/92/23 25/91/23 26/90/23 29/89/23
f 31/96/24 28/95/24 27/94/24 32/93/24
o Right_Arm_Layer
v -0.10125670268249898 0.5062182577514637 -0.07500000000000007
v -0.10125670268249898 0.5062182577514637 -0.3375
v -0.32129967629242556 -0.025012473442526162 -0.07500000000000007
v -0.32129967629242556 -0.025012473442526162 -0.3375
v -0.2860326091847563 0.5827549442244816 -0.3375
v -0.2860326091847563 0.5827549442244816 -0.07500000000000007
v -0.5060755827946829 0.05152421303049176 -0.3375
v -0.5060755827946829 0.05152421303049176 -0.07500000000000007
vt 0.8125 0.4375
vt 0.875 0.4375
vt 0.875 0.25
vt 0.8125 0.25
vt 0.75 0.4375
vt 0.8125 0.4375
vt 0.8125 0.25
vt 0.75 0.25
vt 0.6875 0.4375
vt 0.75 0.4375
vt 0.75 0.25
vt 0.6875 0.25
vt 0.625 0.4375
vt 0.6875 0.4375
vt 0.6875 0.25
vt 0.625 0.25
vt 0.6875 0.5
vt 0.75 0.5
vt 0.75 0.4375
vt 0.6875 0.4375
vt 0.75 0.4375
vt 0.8125 0.4375
vt 0.8125 0.5
vt 0.75 0.5
vn 0 0 -1
vn 0.9238795325112867 -0.3826834323650897 0
vn 0 0 1
vn -0.9238795325112867 0.3826834323650897 0
vn 0.3826834323650897 0.9238795325112867 0
vn -0.3826834323650897 -0.9238795325112867 0
usemtl m_fa173383-1bf9-ff6f-d5dd-a7bb0e5762e8
f 36/100/25 39/99/25 37/98/25 34/97/25
f 35/104/26 36/103/26 34/102/26 33/101/26
f 40/108/27 35/107/27 33/106/27 38/105/27
f 39/112/28 40/111/28 38/110/28 37/109/28
f 38/116/29 33/115/29 34/114/29 37/113/29
f 39/120/30 36/119/30 35/118/30 40/117/30
o Left_Arm
v 0.2826501335588426 0.5745889256940042 -0.08124999999999999
v 0.2826501335588426 0.5745889256940042 -0.33125
v 0.49790956426420563 0.05490668865640547 -0.08124999999999999
v 0.49790956426420563 0.05490668865640547 -0.33125
v 0.10942272121297639 0.50283578212555 -0.33125
v 0.10942272121297639 0.50283578212555 -0.08124999999999999
v 0.3246821519183394 -0.016846454912048836 -0.33125
v 0.3246821519183394 -0.016846454912048836 -0.08124999999999999
vt 0.6875 0.1875
vt 0.75 0.1875
vt 0.75 0
vt 0.6875 0
vt 0.625 0.1875
vt 0.6875 0.1875
vt 0.6875 0
vt 0.625 0
vt 0.5625 0.1875
vt 0.625 0.1875
vt 0.625 0
vt 0.5625 0
vt 0.5 0.1875
vt 0.5625 0.1875
vt 0.5625 0
vt 0.5 0
vt 0.5625 0.25
vt 0.625 0.25
vt 0.625 0.1875
vt 0.5625 0.1875
vt 0.625 0.1875
vt 0.6875 0.1875
vt 0.6875 0.25
vt 0.625 0.25
vn 0 0 -1
vn 0.9238795325112867 0.3826834323650897 0
vn 0 0 1
vn -0.9238795325112867 -0.3826834323650897 0
vn -0.3826834323650897 0.9238795325112867 0
vn 0.3826834323650897 -0.9238795325112867 0
usemtl m_fa173383-1bf9-ff6f-d5dd-a7bb0e5762e8
f 44/124/31 47/123/31 45/122/31 42/121/31
f 43/128/32 44/127/32 42/126/32 41/125/32
f 48/132/33 43/131/33 41/130/33 46/129/33
f 47/136/34 48/135/34 46/134/34 45/133/34
f 46/140/35 41/139/35 42/138/35 45/137/35
f 47/144/36 44/143/36 43/142/36 48/141/36
o Left_Arm_Layer
v 0.2860326091847565 0.5827549442244817 -0.07500000000000007
v 0.2860326091847565 0.5827549442244817 -0.3375
v 0.506075582794683 0.05152421303049182 -0.07500000000000007
v 0.506075582794683 0.05152421303049182 -0.3375
v 0.10125670268249895 0.5062182577514636 -0.3375
v 0.10125670268249895 0.5062182577514636 -0.07500000000000007
v 0.3212996762924255 -0.025012473442526217 -0.3375
v 0.3212996762924255 -0.025012473442526217 -0.07500000000000007
vt 0.9375 0.1875
vt 1 0.1875
vt 1 0
vt 0.9375 0
vt 0.875 0.1875
vt 0.9375 0.1875
vt 0.9375 0
vt 0.875 0
vt 0.8125 0.1875
vt 0.875 0.1875
vt 0.875 0
vt 0.8125 0
vt 0.75 0.1875
vt 0.8125 0.1875
vt 0.8125 0
vt 0.75 0
vt 0.8125 0.25
vt 0.875 0.25
vt 0.875 0.1875
vt 0.8125 0.1875
vt 0.875 0.1875
vt 0.9375 0.1875
vt 0.9375 0.25
vt 0.875 0.25
vn 0 0 -1
vn 0.9238795325112867 0.3826834323650897 0
vn 0 0 1
vn -0.9238795325112867 -0.3826834323650897 0
vn -0.3826834323650897 0.9238795325112867 0
vn 0.3826834323650897 -0.9238795325112867 0
usemtl m_fa173383-1bf9-ff6f-d5dd-a7bb0e5762e8
f 52/148/37 55/147/37 53/146/37 50/145/37
f 51/152/38 52/151/38 50/150/38 49/149/38
f 56/156/39 51/155/39 49/154/39 54/153/39
f 55/160/40 56/159/40 54/158/40 53/157/40
f 54/164/41 49/163/41 50/162/41 53/161/41
f 55/168/42 52/167/42 51/166/42 56/165/42
o Right_Leg
v -0.17118730083564376 0.246875 0.26730429770250036
v 0.04407212986971923 0.246875 -0.25237793933509844
v -0.17118730083564376 0.012500000000000011 0.26730429770250036
v 0.04407212986971923 0.012500000000000011 -0.25237793933509844
v -0.1666878884844181 0.246875 -0.33967759734338454
v -0.3819473191897811 0.246875 0.18000463969421424
v -0.1666878884844181 0.012500000000000011 -0.33967759734338454
v -0.3819473191897811 0.012500000000000011 0.18000463969421424
vt 0.125 0.6875
vt 0.0625 0.6875
vt 0.0625 0.75
vt 0.125 0.75
vt 0.125 0.5
vt 0.125 0.6875
vt 0.1875 0.6875
vt 0.1875 0.5
vt 0.125 0.6875
vt 0.1875 0.6875
vt 0.1875 0.75
vt 0.125 0.75
vt 0.0625 0.6875
vt 0.0625 0.5
vt 0 0.5
vt 0 0.6875
vt 0.0625 0.6875
vt 0.125 0.6875
vt 0.125 0.5
vt 0.0625 0.5
vt 0.25 0.5
vt 0.1875 0.5
vt 0.1875 0.6875
vt 0.25 0.6875
vn 0.3826834323650897 0 -0.9238795325112867
vn 0.9238795325112867 0 0.3826834323650897
vn -0.3826834323650897 0 0.9238795325112867
vn -0.9238795325112867 0 -0.3826834323650897
vn 0 1 0
vn 0 -1 0
usemtl m_fa173383-1bf9-ff6f-d5dd-a7bb0e5762e8
f 60/172/43 63/171/43 61/170/43 58/169/43
f 59/176/44 60/175/44 58/174/44 57/173/44
f 64/180/45 59/179/45 57/178/45 62/177/45
f 63/184/46 64/183/46 62/182/46 61/181/46
f 62/188/47 57/187/47 58/186/47 61/185/47
f 63/192/48 60/191/48 59/190/48 64/189/48
o Right_Leg_Layer
v -0.17019659666201184 0.253125 0.2812445633111732
v 0.049846376947914744 0.253125 -0.24998616788281663
v -0.17019659666201184 0.006249999999999992 0.2812445633111732
v 0.049846376947914744 0.006249999999999992 -0.24998616788281663
v -0.1724621355626136 0.253125 -0.3420693687956663
v -0.3925051091725402 0.253125 0.18916136239832348
v -0.1724621355626136 0.006249999999999992 -0.3420693687956663
v -0.3925051091725402 0.006249999999999992 0.18916136239832348
vt 0.125 0.4375
vt 0.0625 0.4375
vt 0.0625 0.5
vt 0.125 0.5
vt 0.125 0.25
vt 0.125 0.4375
vt 0.1875 0.4375
vt 0.1875 0.25
vt 0.125 0.4375
vt 0.1875 0.4375
vt 0.1875 0.5
vt 0.125 0.5
vt 0.0625 0.4375
vt 0.0625 0.25
vt 0 0.25
vt 0 0.4375
vt 0.0625 0.4375
vt 0.125 0.4375
vt 0.125 0.25
vt 0.0625 0.25
vt 0.25 0.25
vt 0.1875 0.25
vt 0.1875 0.4375
vt 0.25 0.4375
vn 0.3826834323650897 0 -0.9238795325112867
vn 0.9238795325112867 0 0.3826834323650897
vn -0.3826834323650897 0 0.9238795325112867
vn -0.9238795325112867 0 -0.3826834323650897
vn 0 1 0
vn 0 -1 0
usemtl m_fa173383-1bf9-ff6f-d5dd-a7bb0e5762e8
f 68/196/49 71/195/49 69/194/49 66/193/49
f 67/200/50 68/199/50 66/198/50 65/197/50
f 72/204/51 67/203/51 65/202/51 70/201/51
f 71/208/52 72/207/52 70/206/52 69/205/52
f 70/212/53 65/211/53 66/210/53 69/209/53
f 71/216/54 68/215/54 67/214/54 72/213/54
o Left_Leg
v 0.39650552223314556 0.246875 0.1796519105623739
v 0.1812460915277826 0.246875 -0.3400303264752249
v 0.39650552223314556 0.012500000000000011 0.1796519105623739
v 0.1812460915277826 0.012500000000000011 -0.3400303264752249
v -0.02951392682635462 0.246875 -0.2527306684669388
v 0.18574550387900834 0.246875 0.26695156857065994
v -0.02951392682635462 0.012500000000000011 -0.2527306684669388
v 0.18574550387900834 0.012500000000000011 0.26695156857065994
vt 0.375 0.1875
vt 0.3125 0.1875
vt 0.3125 0.25
vt 0.375 0.25
vt 0.375 0
vt 0.375 0.1875
vt 0.4375 0.1875
vt 0.4375 0
vt 0.375 0.1875
vt 0.4375 0.1875
vt 0.4375 0.25
vt 0.375 0.25
vt 0.3125 0.1875
vt 0.3125 0
vt 0.25 0
vt 0.25 0.1875
vt 0.3125 0.1875
vt 0.375 0.1875
vt 0.375 0
vt 0.3125 0
vt 0.5 0
vt 0.4375 0
vt 0.4375 0.1875
vt 0.5 0.1875
vn -0.3826834323650897 0 -0.9238795325112867
vn 0.9238795325112867 0 -0.3826834323650897
vn 0.3826834323650897 0 0.9238795325112867
vn -0.9238795325112867 0 0.3826834323650897
vn 0 1 0
vn 0 -1 0
usemtl m_fa173383-1bf9-ff6f-d5dd-a7bb0e5762e8
f 76/220/55 79/219/55 77/218/55 74/217/55
f 75/224/56 76/223/56 74/222/56 73/221/56
f 80/228/57 75/227/57 73/226/57 78/225/57
f 79/232/58 80/231/58 78/230/58 77/229/58
f 78/236/59 73/235/59 74/234/59 77/233/59
f 79/240/60 76/239/60 75/238/60 80/237/60
o Left_Leg_Layer
v 0.4070633122159048 0.253125 0.18880863326648312
v 0.18702033860597822 0.253125 -0.34242209792750666
v 0.4070633122159048 0.006249999999999992 0.18880863326648312
v 0.18702033860597822 0.006249999999999992 -0.34242209792750666
v -0.03528817390455022 0.253125 -0.25033889701465695
v 0.18475479970537634 0.253125 0.28089183417933283
v -0.03528817390455022 0.006249999999999992 -0.25033889701465695
v 0.18475479970537634 0.006249999999999992 0.28089183417933283
vt 0.125 0.1875
vt 0.0625 0.1875
vt 0.0625 0.25
vt 0.125 0.25
vt 0.125 0
vt 0.125 0.1875
vt 0.1875 0.1875
vt 0.1875 0
vt 0.125 0.1875
vt 0.1875 0.1875
vt 0.1875 0.25
vt 0.125 0.25
vt 0.0625 0.1875
vt 0.0625 0
vt 0 0
vt 0 0.1875
vt 0.0625 0.1875
vt 0.125 0.1875
vt 0.125 0
vt 0.0625 0
vt 0.25 0
vt 0.1875 0
vt 0.1875 0.1875
vt 0.25 0.1875
vn -0.3826834323650897 0 -0.9238795325112867
vn 0.9238795325112867 0 -0.3826834323650897
vn 0.3826834323650897 0 0.9238795325112867
vn -0.9238795325112867 0 0.3826834323650897
vn 0 1 0
vn 0 -1 0
usemtl m_fa173383-1bf9-ff6f-d5dd-a7bb0e5762e8
f 84/244/61 87/243/61 85/242/61 82/241/61
f 83/248/62 84/247/62 82/246/62 81/245/62
f 88/252/63 83/251/63 81/250/63 86/249/63
f 87/256/64 88/255/64 86/254/64 85/253/64
f 86/260/65 81/259/65 82/258/65 85/257/65
f 87/264/66 84/263/66 83/262/66 88/261/66
o Cape
v 0.21875 0.5640051220247261 -0.34523763122116036
v 0.21875 0.5879228365475442 -0.40298010200311574
v 0.21875 -0.12313028028054346 -0.6298584340426958
v 0.21875 -0.09921256575772536 -0.6876009048246512
v -0.21875 0.5879228365475442 -0.40298010200311574
v -0.21875 0.5640051220247261 -0.34523763122116036
v -0.21875 -0.09921256575772536 -0.6876009048246512
v -0.21875 -0.12313028028054346 -0.6298584340426958
vt 0.015625 0.984375
vt 0.171875 0.984375
vt 0.171875 0.734375
vt 0.015625 0.734375
vt 0.015625 1
vt 0.03125 1
vt 0.03125 0.734375
vt 0.015625 0.734375
vt 0.1875 0.984375
vt 0.34375 0.984375
vt 0.34375 0.734375
vt 0.1875 0.734375
vt 0.015625 1
vt 0.03125 1
vt 0.03125 0.734375
vt 0.015625 0.734375
vt 0.015625 1
vt 0.171875 1
vt 0.171875 0.984375
vt 0.015625 0.984375
vt 0.171875 1
vt 0.328125 1
vt 0.328125 0.984375
vt 0.171875 0.984375
vn 0 0.3826834323650897 -0.9238795325112867
vn 1 0 0
vn 0 -0.3826834323650897 0.9238795325112867
vn -1 0 0
vn 0 0.9238795325112867 0.3826834323650897
vn 0 -0.9238795325112867 -0.3826834323650897
usemtl m_2397bb1a-0643-3785-713f-3601cff3f161
f 92/268/67 95/267/67 93/266/67 90/265/67
f 91/272/68 92/271/68 90/270/68 89/269/68
f 96/276/69 91/275/69 89/274/69 94/273/69
f 95/280/70 96/279/70 94/278/70 93/277/70
f 94/284/71 89/283/71 90/282/71 93/281/71
f 95/288/72 92/287/72 91/286/72 96/285/72
o Head_Layer
v 0.3125 1.15625 0.09375
v 0.3125 1.15625 -0.53125
v 0.3125 0.53125 0.09375
v 0.3125 0.53125 -0.53125
v -0.3125 1.15625 -0.53125
v -0.3125 1.15625 0.09375
v -0.3125 0.53125 -0.53125
v -0.3125 0.53125 0.09375
vt 0.875 0.875
vt 1 0.875
vt 1 0.75
vt 0.875 0.75
vt 0.75 0.875
vt 0.875 0.875
vt 0.875 0.75
vt 0.75 0.75
vt 0.625 0.875
vt 0.75 0.875
vt 0.75 0.75
vt 0.625 0.75
vt 0.5 0.875
vt 0.625 0.875
vt 0.625 0.75
vt 0.5 0.75
vt 0.625 1
vt 0.75 1
vt 0.75 0.875
vt 0.625 0.875
vt 0.75 0.875
vt 0.875 0.875
vt 0.875 1
vt 0.75 1
vn 0 0 -1
vn 1 0 0
vn 0 0 1
vn -1 0 0
vn 0 1 0
vn 0 -1 0
usemtl m_fa173383-1bf9-ff6f-d5dd-a7bb0e5762e8
f 100/292/73 103/291/73 101/290/73 98/289/73
f 99/296/74 100/295/74 98/294/74 97/293/74
f 104/300/75 99/299/75 97/298/75 102/297/75
f 103/304/76 104/303/76 102/302/76 101/301/76
f 102/308/77 97/307/77 98/306/77 101/305/77
f 103/312/78 100/311/78 99/310/78 104/309/78
o Elytra_Right
v 0.19253156192771667 0.4556910108573543 -0.28125
v 0.19253156192771667 0.4556910108573543 -0.40625
v -0.09208924089381879 -0.23144439144791518 -0.28125
v -0.09208924089381879 -0.23144439144791518 -0.40625
v -0.21166573354597126 0.6231150125170811 -0.40625
v -0.21166573354597126 0.6231150125170811 -0.28125
v -0.49628653636750675 -0.06402038978818836 -0.40625
v -0.49628653636750675 -0.06402038978818836 -0.28125
vt 0.71875 0.96875
vt 0.5625 0.96875
vt 0.5625 0.65625
vt 0.71875 0.65625
vt 0.375 0.96875
vt 0.34375 0.96875
vt 0.34375 0.65625
vt 0.375 0.65625
vt 0 1
vt 0 1
vt 0 1
vt 0 1
vt 0.5625 0.96875
vt 0.53125 0.96875
vt 0.53125 0.65625
vt 0.5625 0.65625
vt 0.53125 1
vt 0.375 1
vt 0.375 0.96875
vt 0.53125 0.96875
vt 0.6875 0.96875
vt 0.53125 0.96875
vt 0.53125 1
vt 0.6875 1
vn 0 0 -1
vn 0.9238795325112867 -0.3826834323650897 0
vn 0 0 1
vn -0.9238795325112867 0.3826834323650897 0
vn 0.3826834323650897 0.9238795325112867 0
vn -0.3826834323650897 -0.9238795325112867 0
usemtl m_2397bb1a-0643-3785-713f-3601cff3f161
f 108/316/79 111/315/79 109/314/79 106/313/79
f 107/320/80 108/319/80 106/318/80 105/317/80
f 112/324/81 107/323/81 105/322/81 110/321/81
f 111/328/82 112/327/82 110/326/82 109/325/82
f 110/332/83 105/331/83 106/330/83 109/329/83
f 111/336/84 108/335/84 107/334/84 112/333/84
o Elytra_Left
v 0.21166573354597126 0.6231150125170811 -0.28125
v 0.21166573354597126 0.6231150125170811 -0.40625
v 0.49628653636750675 -0.06402038978818836 -0.28125
v 0.49628653636750675 -0.06402038978818836 -0.40625
v -0.19253156192771667 0.4556910108573543 -0.40625
v -0.19253156192771667 0.4556910108573543 -0.28125
v 0.09208924089381879 -0.23144439144791518 -0.40625
v 0.09208924089381879 -0.23144439144791518 -0.28125
vt 0.5625 0.96875
vt 0.71875 0.96875
vt 0.71875 0.65625
vt 0.5625 0.65625
vt 0.53125 0.96875
vt 0.5625 0.96875
vt 0.5625 0.65625
vt 0.53125 0.65625
vt 0 1
vt 0 1
vt 0 1
vt 0 1
vt 0.34375 0.96875
vt 0.375 0.96875
vt 0.375 0.65625
vt 0.34375 0.65625
vt 0.375 1
vt 0.53125 1
vt 0.53125 0.96875
vt 0.375 0.96875
vt 0.53125 0.96875
vt 0.6875 0.96875
vt 0.6875 1
vt 0.53125 1
vn 0 0 -1
vn 0.9238795325112867 0.3826834323650897 0
vn 0 0 1
vn -0.9238795325112867 -0.3826834323650897 0
vn -0.3826834323650897 0.9238795325112867 0
vn 0.3826834323650897 -0.9238795325112867 0
usemtl m_2397bb1a-0643-3785-713f-3601cff3f161
f 116/340/85 119/339/85 117/338/85 114/337/85
f 115/344/86 116/343/86 114/342/86 113/341/86
f 120/348/87 115/347/87 113/346/87 118/345/87
f 119/352/88 120/351/88 118/350/88 117/349/88
f 118/356/89 113/355/89 114/354/89 117/353/89
f 119/360/90 116/359/90 115/358/90 120/357/90
o Right_Arm_Alex
v -0.10942272121297633 0.50283578212555 -0.08124999999999999
v -0.10942272121297633 0.50283578212555 -0.33125
v -0.32468215191833927 -0.016846454912048836 -0.08124999999999999
v -0.32468215191833927 -0.016846454912048836 -0.33125
v -0.2826501335588426 0.5745889256940042 -0.33125
v -0.2826501335588426 0.5745889256940042 -0.08124999999999999
v -0.4979095642642055 0.05490668865640547 -0.33125
v -0.4979095642642055 0.05490668865640547 -0.08124999999999999
vt 0.796875 0.6875
vt 0.84375 0.6875
vt 0.84375 0.5
vt 0.796875 0.5
vt 0.734375 0.6875
vt 0.796875 0.6875
vt 0.796875 0.5
vt 0.734375 0.5
vt 0.6875 0.6875
vt 0.734375 0.6875
vt 0.734375 0.5
vt 0.6875 0.5
vt 0.625 0.6875
vt 0.6875 0.6875
vt 0.6875 0.5
vt 0.625 0.5
vt 0.6875 0.75
vt 0.734375 0.75
vt 0.734375 0.6875
vt 0.6875 0.6875
vt 0.734375 0.6875
vt 0.78125 0.6875
vt 0.78125 0.75
vt 0.734375 0.75
vn 0 0 -1
vn 0.9238795325112867 -0.3826834323650897 0
vn 0 0 1
vn -0.9238795325112867 0.3826834323650897 0
vn 0.3826834323650897 0.9238795325112867 0
vn -0.3826834323650897 -0.9238795325112867 0
usemtl m_fa173383-1bf9-ff6f-d5dd-a7bb0e5762e8
f 124/364/91 127/363/91 125/362/91 122/361/91
f 123/368/92 124/367/92 122/366/92 121/365/92
f 128/372/93 123/371/93 121/370/93 126/369/93
f 127/376/94 128/375/94 126/374/94 125/373/94
f 126/380/95 121/379/95 122/378/95 125/377/95
f 127/384/96 124/383/96 123/382/96 128/381/96
o Right_Arm_Alex_Layer
v -0.10125670268249898 0.5062182577514637 -0.07500000000000007
v -0.10125670268249898 0.5062182577514637 -0.3375
v -0.32129967629242556 -0.025012473442526162 -0.07500000000000007
v -0.32129967629242556 -0.025012473442526162 -0.3375
v -0.2860326091847563 0.5827549442244816 -0.3375
v -0.2860326091847563 0.5827549442244816 -0.07500000000000007
v -0.5060755827946829 0.05152421303049176 -0.3375
v -0.5060755827946829 0.05152421303049176 -0.07500000000000007
vt 0.796875 0.4375
vt 0.84375 0.4375
vt 0.84375 0.25
vt 0.796875 0.25
vt 0.734375 0.4375
vt 0.796875 0.4375
vt 0.796875 0.25
vt 0.734375 0.25
vt 0.6875 0.4375
vt 0.734375 0.4375
vt 0.734375 0.25
vt 0.6875 0.25
vt 0.625 0.4375
vt 0.6875 0.4375
vt 0.6875 0.25
vt 0.625 0.25
vt 0.6875 0.5
vt 0.734375 0.5
vt 0.734375 0.4375
vt 0.6875 0.4375
vt 0.734375 0.4375
vt 0.78125 0.4375
vt 0.78125 0.5
vt 0.734375 0.5
vn 0 0 -1
vn 0.9238795325112867 -0.3826834323650897 0
vn 0 0 1
vn -0.9238795325112867 0.3826834323650897 0
vn 0.3826834323650897 0.9238795325112867 0
vn -0.3826834323650897 -0.9238795325112867 0
usemtl m_fa173383-1bf9-ff6f-d5dd-a7bb0e5762e8
f 132/388/97 135/387/97 133/386/97 130/385/97
f 131/392/98 132/391/98 130/390/98 129/389/98
f 136/396/99 131/395/99 129/394/99 134/393/99
f 135/400/100 136/399/100 134/398/100 133/397/100
f 134/404/101 129/403/101 130/402/101 133/401/101
f 135/408/102 132/407/102 131/406/102 136/405/102
o Left_Arm_Alex
v 0.2826501335588426 0.5745889256940042 -0.08124999999999999
v 0.2826501335588426 0.5745889256940042 -0.33125
v 0.49790956426420563 0.05490668865640547 -0.08124999999999999
v 0.49790956426420563 0.05490668865640547 -0.33125
v 0.10942272121297639 0.50283578212555 -0.33125
v 0.10942272121297639 0.50283578212555 -0.08124999999999999
v 0.3246821519183394 -0.016846454912048836 -0.33125
v 0.3246821519183394 -0.016846454912048836 -0.08124999999999999
vt 0.65625 0.1875
vt 0.71875 0.1875
vt 0.71875 0
vt 0.65625 0
vt 0.609375 0.1875
vt 0.65625 0.1875
vt 0.65625 0
vt 0.609375 0
vt 0.5625 0.1875
vt 0.609375 0.1875
vt 0.609375 0
vt 0.5625 0
vt 0.5 0.1875
vt 0.5625 0.1875
vt 0.5625 0
vt 0.5 0
vt 0.5625 0.25
vt 0.609375 0.25
vt 0.609375 0.1875
vt 0.5625 0.1875
vt 0.609375 0.1875
vt 0.65625 0.1875
vt 0.65625 0.25
vt 0.609375 0.25
vn 0 0 -1
vn 0.9238795325112867 0.3826834323650897 0
vn 0 0 1
vn -0.9238795325112867 -0.3826834323650897 0
vn -0.3826834323650897 0.9238795325112867 0
vn 0.3826834323650897 -0.9238795325112867 0
usemtl m_fa173383-1bf9-ff6f-d5dd-a7bb0e5762e8
f 140/412/103 143/411/103 141/410/103 138/409/103
f 139/416/104 140/415/104 138/414/104 137/413/104
f 144/420/105 139/419/105 137/418/105 142/417/105
f 143/424/106 144/423/106 142/422/106 141/421/106
f 142/428/107 137/427/107 138/426/107 141/425/107
f 143/432/108 140/431/108 139/430/108 144/429/108
o Left_Arm_Alex_Layer
v 0.2860326091847565 0.5827549442244817 -0.07500000000000007
v 0.2860326091847565 0.5827549442244817 -0.3375
v 0.506075582794683 0.05152421303049182 -0.07500000000000007
v 0.506075582794683 0.05152421303049182 -0.3375
v 0.10125670268249895 0.5062182577514636 -0.3375
v 0.10125670268249895 0.5062182577514636 -0.07500000000000007
v 0.3212996762924255 -0.025012473442526217 -0.3375
v 0.3212996762924255 -0.025012473442526217 -0.07500000000000007
vt 0.9375 0.1875
vt 1 0.1875
vt 1 0
vt 0.9375 0
vt 0.875 0.1875
vt 0.9375 0.1875
vt 0.9375 0
vt 0.875 0
vt 0.8125 0.1875
vt 0.875 0.1875
vt 0.875 0
vt 0.8125 0
vt 0.75 0.1875
vt 0.8125 0.1875
vt 0.8125 0
vt 0.75 0
vt 0.8125 0.25
vt 0.875 0.25
vt 0.875 0.1875
vt 0.8125 0.1875
vt 0.875 0.1875
vt 0.9375 0.1875
vt 0.9375 0.25
vt 0.875 0.25
vn 0 0 -1
vn 0.9238795325112867 0.3826834323650897 0
vn 0 0 1
vn -0.9238795325112867 -0.3826834323650897 0
vn -0.3826834323650897 0.9238795325112867 0
vn 0.3826834323650897 -0.9238795325112867 0
usemtl m_fa173383-1bf9-ff6f-d5dd-a7bb0e5762e8
f 148/436/109 151/435/109 149/434/109 146/433/109
f 147/440/110 148/439/110 146/438/110 145/437/110
f 152/444/111 147/443/111 145/442/111 150/441/111
f 151/448/112 152/447/112 150/446/112 149/445/112
f 150/452/113 145/451/113 146/450/113 149/449/113
f 151/456/114 148/455/114 147/454/114 152/453/114